<svg width="48px" height="48px" viewBox="0 0 48 48" xmlns="http://www.w3.org/2000/svg"><title>70 Basic icons by Xicons.co</title><path d="M48,3.5a2,2,0,0,0-2-2H32.5A12.93,12.93,0,0,0,24,4.95,11.19,11.19,0,0,0,16.19,1.5H2a2,2,0,0,0-2,2V38.27a2,2,0,0,0,2,2l14.64,0.15a7.59,7.59,0,0,1,5.86,2.72A1.92,1.92,0,0,0,24,44a1.89,1.89,0,0,0,.22,0,1.93,1.93,0,0,0,.24,0,2,2,0,0,0,1.6-.83,7.79,7.79,0,0,1,6-2.72H46a2,2,0,0,0,2-2V3.5Z" fill="#e7e9e9"/><path d="M24.6,8.82a0.8,0.8,0,1,0-1.6,0l0.4,28.33a0.82,0.82,0,0,0,.8.82h0A0.82,0.82,0,0,0,25,37.15Z" fill="#a1a3a4"/><path d="M17,15H6a1,1,0,0,1,0-2H17A1,1,0,0,1,17,15Z" fill="#38b1e7"/><path d="M17,24H13a1,1,0,0,1,0-2h4A1,1,0,0,1,17,24Z" fill="#9ca3a7"/><path d="M17,28H13a1,1,0,0,1,0-2h4A1,1,0,0,1,17,28Z" fill="#9ca3a7"/><circle cx="7.5" cy="24.5" r="2.5" fill="#ec5044"/><path d="M17,19H6a1,1,0,0,1,0-2H17A1,1,0,0,1,17,19Z" fill="#9ca3a7"/><path d="M46,39.42H32.06a12.71,12.71,0,0,0-7.56,2.45,12.71,12.71,0,0,0-7.56-2.45H2a2,2,0,0,0,0,4H16.94c2.32,0,4.83.91,6,2.42a1.84,1.84,0,0,0,1.59.62h0l0.35,0,0.27,0h0a1.49,1.49,0,0,0,1-.56c1.14-1.5,3.65-2.42,6-2.42H46A2,2,0,0,0,46,39.42Z" fill="#458eaf"/></svg>