<svg width="48px" height="48px" viewBox="0 0 48 48" xmlns="http://www.w3.org/2000/svg"><title>70 Basic icons by Xicons.co</title><path d="M46,14.57A12.35,12.35,0,0,0,33.91,2,12,12,0,0,0,24,7.37,12,12,0,0,0,14.09,2,12.35,12.35,0,0,0,2,14.57a13.17,13.17,0,0,0,.25,2.54A12.83,12.83,0,0,0,3,19.5a12.73,12.73,0,0,0,2,3.18L20.8,43.75a4,4,0,0,0,6.39,0L43,22.71a12.86,12.86,0,0,0,2.3-4,12.83,12.83,0,0,0,.42-1.59A13.14,13.14,0,0,0,46,14.57Z" fill="#ec5044"/><path d="M23.63,33.17l-0.32,0a2,2,0,0,1-1.42-1l-5.09-9.09-3.09,5A2,2,0,0,1,12,29H3a2,2,0,0,1,0-4h7.89l4.29-6.93a2,2,0,0,1,3.45.08L24.15,28l2.76-2.5A2,2,0,0,1,28.25,25H45a2,2,0,0,1,0,4H29L25,32.66A2,2,0,0,1,23.63,33.17Z" fill="#f6c253"/></svg>