<?xml version="1.0" encoding="UTF-8" standalone="no"?>
<!-- Created with Inkscape (http://www.inkscape.org/) -->

<svg
  height="360"
  inkscape:export-filename="/home/resamsel/Development/translatr/ui/assets/headers/waves.png"
  inkscape:export-xdpi="96"
  inkscape:export-ydpi="96"
  inkscape:version="0.92.3 (2405546, 2018-03-11)"
  sodipodi:docname="waves.svg"
  id="svg8"
  version="1.1"
  viewBox="0 0 507.99999 95.250005"
  xmlns="http://www.w3.org/2000/svg"
  width="1920"
  xmlns:cc="http://creativecommons.org/ns#"
  xmlns:dc="http://purl.org/dc/elements/1.1/"
  xmlns:inkscape="http://www.inkscape.org/namespaces/inkscape"
  xmlns:rdf="http://www.w3.org/1999/02/22-rdf-syntax-ns#"
  xmlns:sodipodi="http://sodipodi.sourceforge.net/DTD/sodipodi-0.dtd">
  <sodipodi:namedview
    bordercolor="#666666"
    borderlayer="true"
    borderopacity="1.0"
    id="base"
    inkscape:current-layer="layer1"
    inkscape:cx="923.87302"
    inkscape:cy="132.93226"
    inkscape:document-units="mm"
    inkscape:pagecheckerboard="false"
    inkscape:pageopacity="0.0"
    inkscape:pageshadow="2"
    inkscape:snap-global="false"
    inkscape:snap-others="false"
    inkscape:window-height="1024"
    inkscape:window-maximized="1"
    inkscape:window-width="1920"
    inkscape:window-x="0"
    inkscape:window-y="27"
    inkscape:zoom="0.7"
    pagecolor="#ffffff"
    showgrid="false"
    units="px"/>
  <defs
    id="defs2"/>
  <metadata
    id="metadata5">
    <rdf:RDF>
      <cc:Work
        rdf:about="">
        <dc:format>image/svg+xml</dc:format>
        <dc:type
          rdf:resource="http://purl.org/dc/dcmitype/StillImage"/>
        <dc:title></dc:title>
      </cc:Work>
    </rdf:RDF>
  </metadata>
  <g
    id="layer1"
    inkscape:groupmode="layer"
    inkscape:label="Layer 1"
    transform="translate(0,-201.74998)">
    <rect
      height="152.87817"
      id="rect5352"
      style="fill:#e8f5e9;fill-opacity:1;stroke:none;stroke-width:0.26458332;stroke-miterlimit:4;stroke-dasharray:none;stroke-opacity:1"
      width="556.98969"
      x="-31.537804"
      y="171.3833"/>
    <path
      d="m 42.251911,221.02801 c 1.335556,-0.71672 2.671111,-1.43343 4.006667,-2.14447 1.335555,-0.71106 2.671111,-1.4164 4.006667,-2.1105 1.335555,-0.6941 2.671111,-1.37689 4.006667,-2.04304 1.335555,-0.66615 2.671111,-1.31557 4.006667,-1.94321 1.335554,-0.62765 2.67111,-1.23339 4.006665,-1.81258 1.335556,-0.5792 2.671112,-1.13166 4.006667,-1.65322 1.335556,-0.52155 2.671112,-1.012 4.006667,-1.46765 1.335556,-0.45565 2.671111,-0.87629 4.006667,-1.25882 1.335556,-0.38252 2.671111,-0.72669 4.006667,-1.03002 1.335555,-0.30334 2.671111,-0.56559 4.006667,-0.78492 1.335555,-0.21934 2.671111,-0.3955 4.006666,-0.52737 1.335558,-0.13186 2.671108,-0.21915 4.006668,-0.26144 1.33555,-0.0423 2.67111,-0.0393 4.00666,0.009 1.33556,0.048 2.67112,0.14112 4.00667,0.27854 1.33556,0.13741 2.671117,0.31932 4.006677,0.54404 1.33556,0.22471 2.67113,0.49247 4.0067,0.80092 1.33555,0.30844 2.67112,0.65782 4.00667,1.0451 1.33556,0.38729 2.67111,0.81273 4.00667,1.27274 1.33555,0.46 2.67111,0.95476 4.00667,1.48017 1.33555,0.52542 2.67111,1.08167 4.00666,1.66417 1.33555,0.5825 2.6711,1.19141 4.00666,1.82177 1.33555,0.63035 2.67111,1.28228 4.00667,1.9505 1.33555,0.66821 2.67111,1.35282 4.00666,2.04831 1.33556,0.69549 2.67111,1.40192 4.00667,2.11366 1.33555,0.71173 2.67111,1.42879 4.00666,2.14549 1.33556,0.7167 2.67112,1.43303 4.00667,2.14333 1.33555,0.7103 2.67111,1.41454 4.00666,2.10718 1.33556,0.69265 2.67112,1.37364 4.00667,2.03765 1.33556,0.66401 2.67111,1.31094 4.00667,1.9358 1.33555,0.62486 2.67111,1.22749 4.00667,1.80328 1.33555,0.57578 2.67111,1.12456 4.00667,1.64216 1.33554,0.5176 2.6711,1.00383 4.00666,1.45503 1.33555,0.4512 2.67111,0.86716 4.00667,1.24482 1.33556,0.37765 2.6711,0.71677 4.00666,1.01488 1.33556,0.29812 2.67111,0.555 4.00667,0.76887 1.33556,0.21386 2.67111,0.38444 4.00666,0.51065 1.33556,0.12621 2.67112,0.20779 4.00667,0.24435 1.33556,0.0365 2.67112,0.0278 4.00667,-0.0258 1.33555,-0.0537 2.67111,-0.15254 4.00666,-0.29559 1.33556,-0.14305 2.67112,-0.33052 4.00667,-0.56068 1.33556,-0.23016 2.67112,-0.50325 4.00667,-0.81687 1.33555,-0.31362 2.67111,-0.66802 4.00667,-1.06013 1.33555,-0.39211 2.67111,-0.82217 4.00667,-1.28656 1.33554,-0.46439 2.6711,-0.96331 4.00666,-1.49261 1.33556,-0.52931 2.67111,-1.08917 4.00667,-1.67501 1.33556,-0.58583 2.6711,-1.19777 4.00666,-1.83084 1.33556,-0.63307 2.67111,-1.28739 4.00667,-1.95766 1.33556,-0.67027 2.67111,-1.35659 4.00666,-2.05345 1.33556,-0.69685 2.67112,-1.4043 4.00667,-2.11668 1.33556,-0.71239 2.67112,-1.42974 4.00667,-2.14638 1.33555,-0.71663 2.67111,-1.43253 4.00666,-2.14204 1.33556,-0.70951 2.67112,-1.4126 4.00668,-2.10374 1.33555,-0.69115 2.67111,-1.37029 4.00666,-2.03212 1.33555,-0.66183 2.67111,-1.30624 4.00667,-1.92826 1.33555,-0.62202 2.67111,-1.22151 4.00667,-1.79386 1.33554,-0.57235 2.6711,-1.11739 4.00666,-1.631 1.33556,-0.51361 2.67111,-0.99559 4.00667,-1.44231 1.33556,-0.44673 2.6711,-0.85799 4.00666,-1.23074 1.33556,-0.37277 2.67111,-0.7068 4.00667,-0.99968 1.33556,-0.29289 2.67112,-0.54439 4.00666,-0.75277 1.33556,-0.20836 2.67112,-0.37335 4.00667,-0.4939 1.33556,-0.12056 2.67112,-0.19641 4.00667,-0.22724 1.33555,-0.0308 2.67111,-0.0163 4.00666,0.0431 1.33556,0.0594 2.67112,0.16397 4.00668,0.31264 1.33555,0.14867 2.67111,0.34169 4.00666,0.57729 1.33555,0.23558 2.67111,0.51399 4.00667,0.83277 1.33555,0.31877 2.67111,0.67815 4.00667,1.07506 1.33555,0.39691 2.6711,0.83157 4.00666,1.30031 1.33556,0.46875 2.67111,0.9718 4.00667,1.50496 1.33556,0.53316 2.6711,1.09661 4.00666,1.68573 1.33556,0.58912 2.67111,1.20405 4.00667,1.8398 1.33556,0.63574 2.67112,1.29241 4.00666,1.96469 1.33556,0.67229 2.67112,1.36028 4.00667,2.05846 1.33556,0.69817 2.67112,1.40658 4.00667,2.11958 1.33555,0.71299 2.67111,1.43059 4.00667,2.14711 1.33555,0.71652 2.67111,1.43193 4.00667,2.14061 1.33555,0.70868 2.67111,1.41057 4.00666,2.10018 1.33555,0.6896 2.67111,1.36685 4.00667,2.02645 1.33555,0.6596 2.67111,1.30146 4.00667,1.92061 1.33555,0.61914 2.6711,1.21544 4.00666,1.78432 1.33556,0.56887 2.67111,1.11015 4.00667,1.61974 1.33556,0.50958 2.6711,0.98728 4.00666,1.42949 1.33556,0.44223 2.67112,0.84875 4.00667,1.21659 1.33556,0.36785 2.67112,0.69677 4.00666,0.98441 1.33556,0.28764 2.67112,0.53374 4.00667,0.73661 1.33556,0.20286 2.67112,0.36225 4.00667,0.47713 1.33556,0.11489 2.67111,0.18502 4.00667,0.21011 1.33555,0.0251 2.67111,0.005 4.00667,-0.0602 1.33555,-0.0651 2.67111,-0.17539 4.00666,-0.32967 1.33555,-0.15429 2.67111,-0.35285 4.00667,-0.59385 1.33556,-0.24101 2.67111,-0.52472 4.00667,-0.84862 1.33555,-0.32392 2.6711,-0.68827 4.00666,-1.08994 1.33556,-0.40168 2.67111,-0.8409 4.00667,-1.31398 1.33556,-0.47308 2.6711,-0.98022 4.00666,-1.5172 1.33556,-0.53698 2.67112,-1.10399 4.00667,-1.69636 1.33556,-0.59237 2.67112,-1.21026 4.00666,-1.84863 1.33556,-0.63837 2.67112,-1.29735 4.00667,-1.97161 1.33556,-0.67425 2.67112,-1.36387 4.00668,-2.06332 1.33555,-0.69945 2.6711,-1.40879 4.00666,-2.12234 1.33555,-0.71356 2.67111,-1.43136 4.00667,-2.14772 1.33555,-0.71635 2.67111,-1.43125 4.00666,-2.13904 1.33555,-0.7078 2.67111,-1.40845 4.00667,-2.09647 1.33556,-0.68802 2.67111,-1.36332 4.00667,-2.02066 1.33555,-0.65733 2.6711,-1.29659 4.00666,-1.91282 1.33556,-0.61624 2.67111,-1.20931 4.00667,-1.77467 1.33556,-0.56536 2.67111,-1.10285 4.00666,-1.60838 1.33556,-0.50553 2.67112,-0.97891 4.00667,-1.41659 1.33556,-0.43769 2.67112,-0.83946 4.00666,-1.20236 1.33556,-0.36291 2.67112,-0.6867 4.00667,-0.96907 1.33556,-0.28236 2.67112,-0.52305 4.00668,-0.72041 1.33555,-0.19735 2.6711,-0.35112 4.00666,-0.46033 1.33555,-0.10921 2.67111,-0.17361 4.00667,-0.19296 1.33555,-0.0193 2.67111,0.007 4.00666,0.0775 1.33556,0.0708 2.67111,0.18679 4.00667,0.34667 1.33556,0.15989 2.67111,0.36398 4.00667,0.61038 1.33555,0.24641 2.6711,0.5354 4.00666,0.86442 1.33556,0.32902 2.67111,0.69832 4.00667,1.10474 1.33556,0.40642 2.67111,0.85018 4.00666,1.32756 1.33556,0.47738 2.67112,0.98857 4.00667,1.52934 1.33556,0.54077 2.67112,1.11129 4.00666,1.70687 1.33556,0.59559 2.67112,1.21639 4.00668,1.85736 1.33555,0.64096 2.67111,1.3022 4.00667,1.97838 1.33555,0.67619 2.6711,1.36739 4.00666,2.06807 1.33555,0.70068 2.67111,1.41089 4.00667,2.12496 1.33555,0.71407 2.67111,1.43203 4.00666,2.14818 1.33556,0.71615 2.67111,1.43047 4.00667,2.13734 1.33556,0.70687 2.67111,1.40624 4.00667,2.09263 l 0.16631,46.39645 -508.423375,-4.34698 z"
      id="path5331"
      inkscape:connector-curvature="0"
      sodipodi:nodetypes="ccsscccsccccccccccccccccccscccccccccsccscsccccsscccccsccsccccccssccccsscsccccccccccccccccccccsscccccccsccscccccsccccssccscccccscccc"
      style="fill:#a5d6a7;fill-opacity:1;stroke:none;stroke-width:0.15967458;stroke-miterlimit:4;stroke-dasharray:none;stroke-opacity:1"
      title="sin(x)"/>
    <path
      d="m -26.515605,231.76711 c 1.335556,-0.71672 2.671111,-1.43343 4.006667,-2.14447 1.335555,-0.71106 2.671111,-1.4164 4.006667,-2.1105 1.335556,-0.6941 2.671113,-1.37689 4.00667,-2.04304 1.335556,-0.66615 2.671112,-1.31557 4.006669,-1.94321 1.3355544,-0.62765 2.6711104,-1.23339 4.0066654,-1.81258 1.335556,-0.5792 2.6711121,-1.13166 4.0066671,-1.65322 1.335556,-0.52155 2.67111226,-1.012 4.0066666,-1.46765 1.3355551,-0.45565 2.6711092,-0.87629 4.0066646,-1.25882 1.3355551,-0.38252 2.6711095,-0.72669 4.0066646,-1.03002 1.3355547,-0.30334 2.6711107,-0.56559 4.0066667,-0.78492 1.335555,-0.21934 2.671111,-0.3955 4.006666,-0.52737 1.335558,-0.13186 2.671108,-0.21915 4.006668,-0.26144 1.33555,-0.0423 2.67111,-0.0393 4.00666,0.009 1.33556,0.048 2.67112,0.14112 4.00667,0.27854 1.33556,0.13741 2.67111,0.31932 4.00667,0.54404 1.33555,0.22471 2.67111,0.49247 4.00667,0.80092 1.33555,0.30844 2.67111,0.65782 4.00666,1.0451 1.33556,0.38729 2.67111,0.81273 4.00667,1.27274 1.33555,0.46 2.67111,0.95476 4.00667,1.48017 1.33555,0.52542 2.67111,1.08167 4.00666,1.66417 1.33556,0.5825 2.67111,1.19141 4.00667,1.82177 1.33555,0.63035 2.67111,1.28228 4.00667,1.9505 1.33555,0.66821 2.67111,1.35282 4.00666,2.04831 1.33556,0.69549 2.67111,1.40192 4.00667,2.11366 1.33555,0.71173 2.67111,1.42879 4.00666,2.14549 1.33556,0.7167 2.67112,1.43303 4.00667,2.14333 1.33555,0.7103 2.67111,1.41454 4.00666,2.10718 1.33556,0.69265 2.67112,1.37364 4.00667,2.03765 1.33556,0.66401 2.67111,1.31094 4.006673,1.9358 1.335541,0.62486 2.671095,1.22749 4.006646,1.80328 1.335544,0.57578 2.671095,1.12456 4.006649,1.64216 1.335531,0.5176 2.671085,1.00383 4.006645,1.45503 1.33555,0.4512 2.67111,0.86716 4.00666,1.24482 1.33556,0.37765 2.6711,0.71677 4.00666,1.01488 1.33556,0.29812 2.67111,0.555 4.00667,0.76887 1.33556,0.21386 2.67111,0.38444 4.00666,0.51065 1.33556,0.12621 2.67112,0.20779 4.00667,0.24435 1.33556,0.0365 2.67112,0.0278 4.00667,-0.0258 1.33555,-0.0537 2.67111,-0.15254 4.00666,-0.29559 1.33556,-0.14305 2.67112,-0.33052 4.00667,-0.56068 1.33556,-0.23016 2.67112,-0.50325 4.00667,-0.81687 1.33555,-0.31362 2.67111,-0.66802 4.00667,-1.06013 1.33555,-0.39211 2.67111,-0.82217 4.00667,-1.28656 1.33554,-0.46439 2.6711,-0.96331 4.00666,-1.49261 1.33556,-0.52931 2.67111,-1.08917 4.00667,-1.67501 1.33556,-0.58583 2.6711,-1.19777 4.00666,-1.83084 1.33556,-0.63307 2.67111,-1.28739 4.00667,-1.95766 1.33556,-0.67027 2.67111,-1.35659 4.00666,-2.05345 1.33556,-0.69685 2.67112,-1.4043 4.00667,-2.11668 1.33556,-0.71239 2.67112,-1.42974 4.00667,-2.14638 1.33555,-0.71663 2.67111,-1.43253 4.00666,-2.14204 1.33556,-0.70951 2.67112,-1.4126 4.00668,-2.10374 1.33555,-0.69115 2.67111,-1.37029 4.00666,-2.03212 1.33555,-0.66183 2.67111,-1.30624 4.00667,-1.92826 1.33555,-0.62202 2.67111,-1.22151 4.00667,-1.79386 1.33554,-0.57235 2.6711,-1.11739 4.00666,-1.631 1.33556,-0.51361 2.67111,-0.99559 4.00667,-1.44231 1.33556,-0.44673 2.6711,-0.85799 4.00666,-1.23074 1.33556,-0.37277 2.67111,-0.7068 4.00667,-0.99968 1.33556,-0.29289 2.67112,-0.54439 4.00666,-0.75277 1.33556,-0.20836 2.67112,-0.37335 4.00667,-0.4939 1.33556,-0.12056 2.67112,-0.19641 4.00667,-0.22724 1.33555,-0.0308 2.67111,-0.0163 4.00666,0.0431 1.33556,0.0594 2.67112,0.16397 4.00668,0.31264 1.33555,0.14867 2.67111,0.34169 4.00666,0.57729 1.33555,0.23558 2.67111,0.51399 4.00667,0.83277 1.33555,0.31877 2.67111,0.67815 4.00667,1.07506 1.33555,0.39691 2.6711,0.83157 4.00666,1.30031 1.33556,0.46875 2.67111,0.9718 4.00667,1.50496 1.33556,0.53316 2.6711,1.09661 4.00666,1.68573 1.33556,0.58912 2.67111,1.20405 4.00667,1.8398 1.33556,0.63574 2.67112,1.29241 4.00666,1.96469 1.33556,0.67229 2.67112,1.36028 4.00667,2.05846 1.33556,0.69817 2.67112,1.40658 4.00667,2.11958 1.33555,0.71299 2.67111,1.43059 4.00667,2.14711 1.33555,0.71652 2.67111,1.43193 4.00667,2.14061 1.33555,0.70868 2.67111,1.41057 4.00666,2.10018 1.33555,0.6896 2.67111,1.36685 4.00667,2.02645 1.33555,0.6596 2.67111,1.30146 4.00667,1.92061 1.33555,0.61914 2.6711,1.21544 4.00666,1.78432 1.33556,0.56887 2.67111,1.11015 4.00667,1.61974 1.33556,0.50958 2.6711,0.98728 4.00666,1.42949 1.33556,0.44223 2.67112,0.84875 4.00667,1.21659 1.33556,0.36785 2.67112,0.69677 4.00666,0.98441 1.33556,0.28764 2.67112,0.53374 4.00667,0.73661 1.33556,0.20286 2.67112,0.36225 4.00667,0.47713 1.33556,0.11489 2.67111,0.18502 4.00667,0.21011 1.33555,0.0251 2.67111,0.005 4.00667,-0.0602 1.33555,-0.0651 2.67111,-0.17539 4.00666,-0.32967 1.33555,-0.15429 2.67111,-0.35285 4.00667,-0.59385 1.33556,-0.24101 2.67111,-0.52472 4.00667,-0.84862 1.33555,-0.32392 2.6711,-0.68827 4.00666,-1.08994 1.33556,-0.40168 2.67111,-0.8409 4.00667,-1.31398 1.33556,-0.47308 2.6711,-0.98022 4.00666,-1.5172 1.33556,-0.53698 2.67112,-1.10399 4.00667,-1.69636 1.33556,-0.59237 2.67112,-1.21026 4.00666,-1.84863 1.33556,-0.63837 2.67112,-1.29735 4.00667,-1.97161 1.33556,-0.67425 2.67112,-1.36387 4.00668,-2.06332 1.33555,-0.69945 2.6711,-1.40879 4.00666,-2.12234 1.33555,-0.71356 2.67111,-1.43136 4.00667,-2.14772 1.33555,-0.71635 2.67111,-1.43125 4.00666,-2.13904 1.33555,-0.7078 2.67111,-1.40845 4.00667,-2.09647 1.33556,-0.68802 2.67111,-1.36332 4.00667,-2.02066 1.33555,-0.65733 2.6711,-1.29659 4.00666,-1.91282 1.33556,-0.61624 2.67111,-1.20931 4.00667,-1.77467 1.33556,-0.56536 2.67111,-1.10285 4.00666,-1.60838 1.33556,-0.50553 2.67112,-0.97891 4.00667,-1.41659 1.33556,-0.43769 2.67112,-0.83946 4.00666,-1.20236 1.33556,-0.36291 2.67112,-0.6867 4.00667,-0.96907 1.33556,-0.28236 2.67112,-0.52305 4.00668,-0.72041 1.33555,-0.19735 2.6711,-0.35112 4.00666,-0.46033 1.33555,-0.10921 2.67111,-0.17361 4.00667,-0.19296 1.33555,-0.0193 2.67111,0.007 4.00666,0.0775 1.33556,0.0708 2.67111,0.18679 4.00667,0.34667 1.33556,0.15989 2.67111,0.36398 4.00667,0.61038 1.33555,0.24641 2.6711,0.5354 4.00666,0.86442 1.33556,0.32902 2.67111,0.69832 4.00667,1.10474 1.33556,0.40642 2.67111,0.85018 4.00666,1.32756 1.33556,0.47738 2.67112,0.98857 4.00667,1.52934 1.33556,0.54077 2.67112,1.11129 4.00666,1.70687 1.33556,0.59559 2.67112,1.21639 4.00668,1.85736 1.33555,0.64096 2.67111,1.3022 4.00667,1.97838 1.33555,0.67619 2.6711,1.36739 4.00666,2.06807 1.33555,0.70068 2.67111,1.41089 4.00667,2.12496 1.33555,0.71407 2.67111,1.43203 4.00666,2.14818 1.33556,0.71615 2.67111,1.43047 4.00667,2.13734 1.33556,0.70687 2.67111,1.40624 4.00667,2.09263 l 0.16631,46.39645 -508.423271,-4.34698 z"
      id="path5327"
      inkscape:connector-curvature="0"
      sodipodi:nodetypes="ccsscccsccccccccccccccccccscccccccccsccscsccccsscccccsccsccccccssccccsscsccccccccccccccccccccsscccccccsccscccccsccccssccscccccscccc"
      style="fill:#66bb6a;fill-opacity:1;stroke:none;stroke-width:0.15967458;stroke-miterlimit:4;stroke-dasharray:none;stroke-opacity:1"
      title="sin(x)"/>
    <g
      id="g13"/>
    <path
      d="m 56.202469,246.0922 c 1.335556,-0.71672 2.671111,-1.43343 4.006667,-2.14447 1.335555,-0.71106 2.671111,-1.4164 4.006667,-2.1105 1.335555,-0.6941 2.671111,-1.37689 4.006667,-2.04304 1.335555,-0.66615 2.671111,-1.31557 4.006667,-1.94321 1.335554,-0.62765 2.67111,-1.23339 4.006665,-1.81258 1.335556,-0.5792 2.671112,-1.13166 4.006667,-1.65322 1.335556,-0.52155 2.671112,-1.012 4.006667,-1.46765 1.33556,-0.45565 2.67111,-0.87629 4.00667,-1.25882 1.33555,-0.38252 2.67111,-0.72669 4.00666,-1.03002 1.33556,-0.30334 2.671104,-0.56559 4.006658,-0.78492 1.335551,-0.21934 2.671095,-0.3955 4.006646,-0.52737 1.33555,-0.13186 2.67111,-0.21915 4.00667,-0.26144 1.33555,-0.0423 2.67111,-0.0393 4.00666,0.009 1.33555,0.048 2.67111,0.14112 4.00666,0.27854 1.33556,0.13741 2.67111,0.31932 4.00667,0.54404 1.33555,0.22471 2.67111,0.49247 4.00667,0.80092 1.33555,0.30844 2.67111,0.65782 4.00666,1.0451 1.33556,0.38729 2.67111,0.81273 4.00667,1.27274 1.33555,0.46 2.67111,0.95476 4.00667,1.48017 1.33555,0.52542 2.67111,1.08167 4.00666,1.66417 1.33556,0.5825 2.67111,1.19141 4.00667,1.82177 1.33555,0.63035 2.67111,1.28228 4.00667,1.9505 1.33555,0.66821 2.67111,1.35282 4.00666,2.04831 1.33556,0.69549 2.67111,1.40192 4.00667,2.11366 1.33555,0.71173 2.67111,1.42879 4.00666,2.14549 1.33556,0.7167 2.67112,1.43303 4.00667,2.14333 1.33555,0.7103 2.67111,1.41454 4.00666,2.10718 1.33556,0.69265 2.67112,1.37364 4.00667,2.03765 1.33556,0.66401 2.67111,1.31094 4.00667,1.9358 1.33555,0.62486 2.67111,1.22749 4.00667,1.80328 1.33555,0.57578 2.67111,1.12456 4.00667,1.64216 1.33554,0.5176 2.6711,1.00383 4.00666,1.45503 1.33555,0.4512 2.67111,0.86716 4.00667,1.24482 1.33556,0.37765 2.6711,0.71677 4.00666,1.01488 1.33556,0.29812 2.67111,0.555 4.00667,0.76887 1.33556,0.21386 2.67111,0.38444 4.00666,0.51065 1.33556,0.12621 2.67112,0.20779 4.00667,0.24435 1.33556,0.0365 2.67112,0.0278 4.00667,-0.0258 1.33555,-0.0537 2.67111,-0.15254 4.00666,-0.29559 1.33556,-0.14305 2.67112,-0.33052 4.00667,-0.56068 1.33556,-0.23016 2.67112,-0.50325 4.00667,-0.81687 1.33555,-0.31362 2.67111,-0.66802 4.00667,-1.06013 1.33555,-0.39211 2.67111,-0.82217 4.00667,-1.28656 1.33554,-0.46439 2.6711,-0.96331 4.00666,-1.49261 1.33556,-0.52931 2.67111,-1.08917 4.00667,-1.67501 1.33556,-0.58583 2.6711,-1.19777 4.00666,-1.83084 1.33556,-0.63307 2.67111,-1.28739 4.00667,-1.95766 1.33556,-0.67027 2.67111,-1.35659 4.00666,-2.05345 1.33556,-0.69685 2.67112,-1.4043 4.00667,-2.11668 1.33556,-0.71239 2.67112,-1.42974 4.00667,-2.14638 1.33555,-0.71663 2.67111,-1.43253 4.00666,-2.14204 1.33556,-0.70951 2.67112,-1.4126 4.00668,-2.10374 1.33555,-0.69115 2.67111,-1.37029 4.00666,-2.03212 1.33555,-0.66183 2.67111,-1.30624 4.00667,-1.92826 1.33555,-0.62202 2.67111,-1.22151 4.00667,-1.79386 1.33554,-0.57235 2.6711,-1.11739 4.00666,-1.631 1.33556,-0.51361 2.67111,-0.99559 4.00667,-1.44231 1.33556,-0.44673 2.6711,-0.85799 4.00666,-1.23074 1.33556,-0.37277 2.67111,-0.7068 4.00667,-0.99968 1.33556,-0.29289 2.67112,-0.54439 4.00666,-0.75277 1.33556,-0.20836 2.67112,-0.37335 4.00667,-0.4939 1.33556,-0.12056 2.67112,-0.19641 4.00667,-0.22724 1.33555,-0.0308 2.67111,-0.0163 4.00666,0.0431 1.33556,0.0594 2.67112,0.16397 4.00668,0.31264 1.33555,0.14867 2.67111,0.34169 4.00666,0.57729 1.33555,0.23558 2.67111,0.51399 4.00667,0.83277 1.33555,0.31877 2.67111,0.67815 4.00667,1.07506 1.33555,0.39691 2.6711,0.83157 4.00666,1.30031 1.33556,0.46875 2.67111,0.9718 4.00667,1.50496 1.33556,0.53316 2.6711,1.09661 4.00666,1.68573 1.33556,0.58912 2.67111,1.20405 4.00667,1.8398 1.33556,0.63574 2.67112,1.29241 4.00666,1.96469 1.33556,0.67229 2.67112,1.36028 4.00667,2.05846 1.33556,0.69817 2.67112,1.40658 4.00667,2.11958 1.33555,0.71299 2.67111,1.43059 4.00667,2.14711 1.33555,0.71652 2.67111,1.43193 4.00667,2.14061 1.33555,0.70868 2.67111,1.41057 4.00666,2.10018 1.33555,0.6896 2.67111,1.36685 4.00667,2.02645 1.33555,0.6596 2.67111,1.30146 4.00667,1.92061 1.33555,0.61914 2.6711,1.21544 4.00666,1.78432 1.33556,0.56887 2.67111,1.11015 4.00667,1.61974 1.33556,0.50958 2.6711,0.98728 4.00666,1.42949 1.33556,0.44223 2.67112,0.84875 4.00667,1.21659 1.33556,0.36785 2.67112,0.69677 4.00666,0.98441 1.33556,0.28764 2.67112,0.53374 4.00667,0.73661 1.33556,0.20286 2.67112,0.36225 4.00667,0.47713 1.33556,0.11489 2.67111,0.18502 4.00667,0.21011 1.33555,0.0251 2.67111,0.005 4.00667,-0.0602 1.33555,-0.0651 2.67111,-0.17539 4.00666,-0.32967 1.33555,-0.15429 2.67111,-0.35285 4.00667,-0.59385 1.33556,-0.24101 2.67111,-0.52472 4.00667,-0.84862 1.33555,-0.32392 2.6711,-0.68827 4.00666,-1.08994 1.33556,-0.40168 2.67111,-0.8409 4.00667,-1.31398 1.33556,-0.47308 2.6711,-0.98022 4.00666,-1.5172 1.33556,-0.53698 2.67112,-1.10399 4.00667,-1.69636 1.33556,-0.59237 2.67112,-1.21026 4.00666,-1.84863 1.33556,-0.63837 2.67112,-1.29735 4.00667,-1.97161 1.33556,-0.67425 2.67112,-1.36387 4.00668,-2.06332 1.33555,-0.69945 2.6711,-1.40879 4.00666,-2.12234 1.33555,-0.71356 2.67111,-1.43136 4.00667,-2.14772 1.33555,-0.71635 2.67111,-1.43125 4.00666,-2.13904 1.33555,-0.7078 2.67111,-1.40845 4.00667,-2.09647 1.33556,-0.68802 2.67111,-1.36332 4.00667,-2.02066 1.33555,-0.65733 2.6711,-1.29659 4.00666,-1.91282 1.33556,-0.61624 2.67111,-1.20931 4.00667,-1.77467 1.33556,-0.56536 2.67111,-1.10285 4.00666,-1.60838 1.33556,-0.50553 2.67112,-0.97891 4.00667,-1.41659 1.33556,-0.43769 2.67112,-0.83946 4.00666,-1.20236 1.33556,-0.36291 2.67112,-0.6867 4.00667,-0.96907 1.33556,-0.28236 2.67112,-0.52305 4.00668,-0.72041 1.33555,-0.19735 2.6711,-0.35112 4.00666,-0.46033 1.33555,-0.10921 2.67111,-0.17361 4.00667,-0.19296 1.33555,-0.0193 2.67111,0.007 4.00666,0.0775 1.33556,0.0708 2.67111,0.18679 4.00667,0.34667 1.33556,0.15989 2.67111,0.36398 4.00667,0.61038 1.33555,0.24641 2.6711,0.5354 4.00666,0.86442 1.33556,0.32902 2.67111,0.69832 4.00667,1.10474 1.33556,0.40642 2.67111,0.85018 4.00666,1.32756 1.33556,0.47738 2.67112,0.98857 4.00667,1.52934 1.33556,0.54077 2.67112,1.11129 4.00666,1.70687 1.33556,0.59559 2.67112,1.21639 4.00668,1.85736 1.33555,0.64096 2.67111,1.3022 4.00667,1.97838 1.33555,0.67619 2.6711,1.36739 4.00666,2.06807 1.33555,0.70068 2.67111,1.41089 4.00667,2.12496 1.33555,0.71407 2.67111,1.43203 4.00666,2.14818 1.33556,0.71615 2.67111,1.43047 4.00667,2.13734 1.33556,0.70687 2.67111,1.40624 4.00667,2.09263 l 0.16631,46.39645 -508.423297,-4.34698 z"
      id="path5323"
      inkscape:connector-curvature="0"
      sodipodi:nodetypes="ccsscccsccccccccccccccccccscccccccccsccscsccccsscccccsccsccccccssccccsscsccccccccccccccccccccsscccccccsccscccccsccccssccscccccscccc"
      style="fill:#43a047;fill-opacity:1;stroke:none;stroke-width:0.15967458;stroke-miterlimit:4;stroke-dasharray:none;stroke-opacity:1"
      title="sin(x)"/>
    <path
      d="m -0.26678951,262.52859 c 1.33555591,-0.71672 2.67111091,-1.43343 4.00666691,-2.14447 1.3355554,-0.71106 2.6711114,-1.4164 4.0066674,-2.1105 1.335555,-0.6941 2.6711112,-1.37689 4.0066672,-2.04304 1.335555,-0.66615 2.671111,-1.31557 4.006667,-1.94321 1.335554,-0.62765 2.67111,-1.23339 4.006665,-1.81258 1.335556,-0.5792 2.671112,-1.13166 4.006667,-1.65322 1.335557,-0.52155 2.671113,-1.012 4.006668,-1.46765 1.335556,-0.45565 2.671111,-0.87629 4.006667,-1.25882 1.335556,-0.38252 2.671111,-0.72669 4.006667,-1.03002 1.335555,-0.30334 2.671111,-0.56559 4.006667,-0.78492 1.335555,-0.21934 2.671111,-0.3955 4.006666,-0.52737 1.335558,-0.13186 2.671108,-0.21915 4.006668,-0.26144 1.33555,-0.0423 2.67111,-0.0393 4.00666,0.009 1.33556,0.048 2.67112,0.14112 4.00667,0.27854 1.33556,0.13741 2.67111,0.31932 4.00667,0.54404 1.33555,0.22471 2.67111,0.49247 4.00667,0.80092 1.33555,0.30844 2.67111,0.65782 4.00666,1.0451 1.33556,0.38729 2.67111,0.81273 4.00667,1.27274 1.33555,0.46 2.67111,0.95476 4.00667,1.48017 1.33555,0.52542 2.67111,1.08167 4.00666,1.66417 1.33556,0.5825 2.67111,1.19141 4.00667,1.82177 1.33555,0.63035 2.67111,1.28228 4.00667,1.9505 1.33555,0.66821 2.67111,1.35282 4.00666,2.04831 1.33556,0.69549 2.67111,1.40192 4.00667,2.11366 1.33555,0.71173 2.67111,1.42879 4.006657,2.14549 1.335569,0.7167 2.671129,1.43303 4.006679,2.14333 1.33555,0.7103 2.67111,1.41454 4.00666,2.10718 1.33556,0.69265 2.67112,1.37364 4.00667,2.03765 1.33556,0.66401 2.6711,1.31094 4.00666,1.9358 1.33555,0.62486 2.67111,1.22749 4.00667,1.80328 1.33555,0.57578 2.67111,1.12456 4.00667,1.64216 1.33554,0.5176 2.6711,1.00383 4.00666,1.45503 1.33555,0.4512 2.67111,0.86716 4.00667,1.24482 1.33556,0.37765 2.6711,0.71677 4.00666,1.01488 1.33556,0.29812 2.67111,0.555 4.00667,0.76887 1.33556,0.21386 2.67111,0.38444 4.00666,0.51065 1.33556,0.12621 2.67112,0.20779 4.00667,0.24435 1.33556,0.0365 2.67112,0.0278 4.00667,-0.0258 1.33555,-0.0537 2.67111,-0.15254 4.00666,-0.29559 1.33556,-0.14305 2.67112,-0.33052 4.00667,-0.56068 1.33556,-0.23016 2.67112,-0.50325 4.00667,-0.81687 1.33555,-0.31362 2.67111,-0.66802 4.00667,-1.06013 1.33555,-0.39211 2.67111,-0.82217 4.00667,-1.28656 1.33554,-0.46439 2.6711,-0.96331 4.00666,-1.49261 1.33556,-0.52931 2.67111,-1.08917 4.00667,-1.67501 1.33556,-0.58583 2.6711,-1.19777 4.00666,-1.83084 1.33556,-0.63307 2.67111,-1.28739 4.00667,-1.95766 1.33556,-0.67027 2.67111,-1.35659 4.00666,-2.05345 1.33556,-0.69685 2.67112,-1.4043 4.00667,-2.11668 1.33556,-0.71239 2.67112,-1.42974 4.00667,-2.14638 1.33555,-0.71663 2.67111,-1.43253 4.00666,-2.14204 1.33556,-0.70951 2.67112,-1.4126 4.00668,-2.10374 1.33555,-0.69115 2.67111,-1.37029 4.00666,-2.03212 1.33555,-0.66183 2.67111,-1.30624 4.00667,-1.92826 1.33555,-0.62202 2.67111,-1.22151 4.00667,-1.79386 1.33554,-0.57235 2.6711,-1.11739 4.00666,-1.631 1.33556,-0.51361 2.67111,-0.99559 4.00667,-1.44231 1.33556,-0.44673 2.6711,-0.85799 4.00666,-1.23074 1.33556,-0.37277 2.67111,-0.7068 4.00667,-0.99968 1.33556,-0.29289 2.67112,-0.54439 4.00666,-0.75277 1.33556,-0.20836 2.67112,-0.37335 4.00667,-0.4939 1.33556,-0.12056 2.67112,-0.19641 4.00667,-0.22724 1.33555,-0.0308 2.67111,-0.0163 4.00666,0.0431 1.33556,0.0594 2.67112,0.16397 4.00668,0.31264 1.33555,0.14867 2.67111,0.34169 4.00666,0.57729 1.33555,0.23558 2.67111,0.51399 4.00667,0.83277 1.33555,0.31877 2.67111,0.67815 4.00667,1.07506 1.33555,0.39691 2.6711,0.83157 4.00666,1.30031 1.33556,0.46875 2.67111,0.9718 4.00667,1.50496 1.33556,0.53316 2.6711,1.09661 4.00666,1.68573 1.33556,0.58912 2.67111,1.20405 4.00667,1.8398 1.33556,0.63574 2.67112,1.29241 4.00666,1.96469 1.33556,0.67229 2.67112,1.36028 4.00667,2.05846 1.33556,0.69817 2.67112,1.40658 4.00667,2.11958 1.33555,0.71299 2.67111,1.43059 4.00667,2.14711 1.33555,0.71652 2.67111,1.43193 4.00667,2.14061 1.33555,0.70868 2.67111,1.41057 4.00666,2.10018 1.33555,0.6896 2.67111,1.36685 4.00667,2.02645 1.33555,0.6596 2.67111,1.30146 4.00667,1.92061 1.33555,0.61914 2.6711,1.21544 4.00666,1.78432 1.33556,0.56887 2.67111,1.11015 4.00667,1.61974 1.33556,0.50958 2.6711,0.98728 4.00666,1.42949 1.33556,0.44223 2.67112,0.84875 4.00667,1.21659 1.33556,0.36785 2.67112,0.69677 4.00666,0.98441 1.33556,0.28764 2.67112,0.53374 4.00667,0.73661 1.33556,0.20286 2.67112,0.36225 4.00667,0.47713 1.33556,0.11489 2.67111,0.18502 4.00667,0.21011 1.33555,0.0251 2.67111,0.005 4.00667,-0.0602 1.33555,-0.0651 2.67111,-0.17539 4.00666,-0.32967 1.33555,-0.15429 2.67111,-0.35285 4.00667,-0.59385 1.33556,-0.24101 2.67111,-0.52472 4.00667,-0.84862 1.33555,-0.32392 2.6711,-0.68827 4.00666,-1.08994 1.33556,-0.40168 2.67111,-0.8409 4.00667,-1.31398 1.33556,-0.47308 2.6711,-0.98022 4.00666,-1.5172 1.33556,-0.53698 2.67112,-1.10399 4.00667,-1.69636 1.33556,-0.59237 2.67112,-1.21026 4.00666,-1.84863 1.33556,-0.63837 2.67112,-1.29735 4.00667,-1.97161 1.33556,-0.67425 2.67112,-1.36387 4.00668,-2.06332 1.33555,-0.69945 2.6711,-1.40879 4.00666,-2.12234 1.33555,-0.71356 2.67111,-1.43136 4.00667,-2.14772 1.33555,-0.71635 2.67111,-1.43125 4.00666,-2.13904 1.33555,-0.7078 2.67111,-1.40845 4.00667,-2.09647 1.33556,-0.68802 2.67111,-1.36332 4.00667,-2.02066 1.33555,-0.65733 2.6711,-1.29659 4.00666,-1.91282 1.33556,-0.61624 2.67111,-1.20931 4.00667,-1.77467 1.33556,-0.56536 2.67111,-1.10285 4.00666,-1.60838 1.33556,-0.50553 2.67112,-0.97891 4.00667,-1.41659 1.33556,-0.43769 2.67112,-0.83946 4.00666,-1.20236 1.33556,-0.36291 2.67112,-0.6867 4.00667,-0.96907 1.33556,-0.28236 2.67112,-0.52305 4.00668,-0.72041 1.33555,-0.19735 2.6711,-0.35112 4.00666,-0.46033 1.33555,-0.10921 2.67111,-0.17361 4.00667,-0.19296 1.33555,-0.0193 2.67111,0.007 4.00666,0.0775 1.33556,0.0708 2.67111,0.18679 4.00667,0.34667 1.33556,0.15989 2.67111,0.36398 4.00667,0.61038 1.33555,0.24641 2.6711,0.5354 4.00666,0.86442 1.33556,0.32902 2.67111,0.69832 4.00667,1.10474 1.33556,0.40642 2.67111,0.85018 4.00666,1.32756 1.33556,0.47738 2.67112,0.98857 4.00667,1.52934 1.33556,0.54077 2.67112,1.11129 4.00666,1.70687 1.33556,0.59559 2.67112,1.21639 4.00668,1.85736 1.33555,0.64096 2.67111,1.3022 4.00667,1.97838 1.33555,0.67619 2.6711,1.36739 4.00666,2.06807 1.33555,0.70068 2.67111,1.41089 4.00667,2.12496 1.33555,0.71407 2.67111,1.43203 4.00666,2.14818 1.33556,0.71615 2.67111,1.43047 4.00667,2.13734 1.33556,0.70687 2.67111,1.40624 4.00667,2.09263 l 0.16631,46.39645 -508.42333551,-4.34698 z"
      id="path5329"
      inkscape:connector-curvature="0"
      sodipodi:nodetypes="ccsscccsccccccccccccccccccscccccccccsccscsccccsscccccsccsccccccssccccsscsccccccccccccccccccccsscccccccsccscccccsccccssccscccccscccc"
      style="fill:#2e7d32;fill-opacity:1;stroke:none;stroke-width:0.15967458;stroke-miterlimit:4;stroke-dasharray:none;stroke-opacity:1"
      title="sin(x)"/>
  </g>
</svg>
