<?xml version="1.0" encoding="UTF-8" standalone="no"?>
<svg
  xmlns:dc="http://purl.org/dc/elements/1.1/"
  xmlns:cc="http://creativecommons.org/ns#"
  xmlns:rdf="http://www.w3.org/1999/02/22-rdf-syntax-ns#"
  xmlns:sodipodi="http://sodipodi.sourceforge.net/DTD/sodipodi-0.dtd"
  xmlns:inkscape="http://www.inkscape.org/namespaces/inkscape"
  xmlns="http://www.w3.org/2000/svg"
  width="24"
  height="24"
  viewBox="0 0 24 24"
  version="1.1"
  id="svg6"
  sodipodi:docname="favicon.svg"
  inkscape:version="0.92.4 (5da689c313, 2019-01-14)"
  inkscape:export-filename="/home/renepanzar/Development/Private/translatr/ui/assets/favicon.png"
  inkscape:export-xdpi="96"
  inkscape:export-ydpi="96">
  <metadata
    id="metadata12">
    <rdf:RDF>
      <cc:Work
        rdf:about="">
        <dc:format>image/svg+xml</dc:format>
        <dc:type
          rdf:resource="http://purl.org/dc/dcmitype/StillImage"/>
        <dc:title></dc:title>
      </cc:Work>
    </rdf:RDF>
  </metadata>
  <defs
    id="defs10"/>
  <sodipodi:namedview
    pagecolor="#000000"
    bordercolor="#666666"
    borderopacity="1"
    objecttolerance="10"
    gridtolerance="10"
    guidetolerance="10"
    inkscape:pageopacity="0"
    inkscape:pageshadow="2"
    inkscape:window-width="1920"
    inkscape:window-height="1008"
    id="namedview8"
    showgrid="false"
    inkscape:zoom="16"
    inkscape:cx="-0.45127119"
    inkscape:cy="12"
    inkscape:window-x="0"
    inkscape:window-y="35"
    inkscape:window-maximized="1"
    inkscape:current-layer="svg6"/>
  <path
    d="M0 0h24v24H0z"
    fill="none"
    id="path2"/>
  <path
    d="M12.87 15.07l-2.54-2.51.03-.03c1.74-1.94 2.98-4.17 3.71-6.53H17V4h-7V2H8v2H1v1.99h11.17C11.5 7.92 10.44 9.75 9 11.35 8.07 10.32 7.3 9.19 6.69 8h-2c.73 1.63 1.73 3.17 2.98 4.56l-5.09 5.02L4 19l5-5 3.11 3.11.76-2.04zM18.5 10h-2L12 22h2l1.12-3h4.75L21 22h2l-4.5-12zm-2.62 7l1.62-4.33L19.12 17h-3.24z"
    id="path4"
    style="stroke:#ffffff;stroke-opacity:1;stroke-width:2.5;stroke-miterlimit:4;stroke-dasharray:none;paint-order:stroke fill markers"/>
</svg>
